<svg width="24" height="24" viewBox="0 0 24 24" fill="none" xmlns="http://www.w3.org/2000/svg">
<path d="M21 6C21.0587 6.00001 21.116 6.00593 21.1719 6.01562C21.212 6.02259 21.2519 6.0311 21.2911 6.04297C21.3106 6.04892 21.3296 6.05638 21.3487 6.06348C21.3584 6.0671 21.3683 6.07028 21.378 6.07422C21.3935 6.08058 21.4087 6.08762 21.4239 6.09473C21.4686 6.11565 21.5119 6.14006 21.5538 6.16797C21.6653 6.24237 21.7612 6.33825 21.835 6.4502C21.8802 6.51862 21.9149 6.5917 21.9415 6.66699C21.9462 6.68037 21.9519 6.6934 21.9561 6.70703C21.9623 6.72732 21.9668 6.74799 21.9717 6.76855C21.9894 6.84293 22 6.92023 22 7V14C22 14.5523 21.5523 14.9999 21 15C20.4478 15 20 14.5523 20 14V9.41406L13.7071 15.707C13.3166 16.0975 12.6835 16.0975 12.293 15.707L9.00005 12.4141L3.70708 17.707C3.31656 18.0975 2.68354 18.0975 2.29302 17.707C1.90249 17.3165 1.90249 16.6835 2.29302 16.293L8.29302 10.293L8.36919 10.2246C8.76196 9.90428 9.34097 9.92686 9.70708 10.293L13 13.5859L18.586 8H14C13.4478 8 13 7.55228 13 7C13 6.44772 13.4478 6 14 6H21Z" fill="#5D6374"/>
</svg>
