<svg width="24" height="24" viewBox="0 0 24 24" fill="none" xmlns="http://www.w3.org/2000/svg">
<path d="M14.293 8.29297C14.6835 7.90245 15.3165 7.90247 15.707 8.29297C16.0976 8.68349 16.0976 9.31651 15.707 9.70703L9.70703 15.707C9.31651 16.0975 8.68349 16.0975 8.29297 15.707C7.90248 15.3165 7.90248 14.6835 8.29297 14.293L14.293 8.29297Z" fill="#5D6374"/>
<path fill-rule="evenodd" clip-rule="evenodd" d="M14.5 13C14.8978 13 15.2792 13.1581 15.5605 13.4395C15.8419 13.7208 16 14.1022 16 14.5C16 14.8978 15.8419 15.2792 15.5605 15.5605C15.2792 15.8419 14.8978 16 14.5 16C14.1022 16 13.7208 15.8419 13.4395 15.5605C13.1581 15.2792 13 14.8978 13 14.5C13 14.1022 13.1581 13.7208 13.4395 13.4395C13.7208 13.1581 14.1022 13 14.5 13Z" fill="#5D6374"/>
<path fill-rule="evenodd" clip-rule="evenodd" d="M9.5 8C9.89782 8 10.2792 8.15815 10.5605 8.43945C10.8419 8.72076 11 9.10218 11 9.5C11 9.89782 10.8419 10.2792 10.5605 10.5605C10.2792 10.8419 9.89782 11 9.5 11C9.10218 11 8.72076 10.8419 8.43945 10.5605C8.15815 10.2792 8 9.89782 8 9.5C8 9.10218 8.15815 8.72076 8.43945 8.43945C8.72076 8.15815 9.10218 8 9.5 8Z" fill="#5D6374"/>
<path fill-rule="evenodd" clip-rule="evenodd" d="M12.0107 2.01172C12.4322 2.01182 12.8501 2.095 13.2393 2.25684C13.6275 2.41837 13.9806 2.65526 14.2773 2.95312L14.9756 3.65137L15.0635 3.73047C15.2764 3.90389 15.5443 3.99984 15.8213 4H16.8203C17.6687 4.00013 18.483 4.33763 19.083 4.9375C19.6828 5.53751 20.0204 6.35182 20.0205 7.2002V8.2002L20.0264 8.31836C20.0536 8.59044 20.1733 8.8469 20.3672 9.04297L21.0654 9.74121C21.3641 10.0384 21.6018 10.3922 21.7637 10.7812C21.9255 11.1705 22.0088 11.5892 22.0088 12.0107C22.0087 12.4322 21.9255 12.8501 21.7637 13.2393C21.6021 13.6277 21.3644 13.9795 21.0664 14.2764L21.0674 14.2773L20.3672 14.9775C20.1451 15.202 20.0207 15.5055 20.0205 15.8213V16.8203C20.0204 17.6688 19.683 18.483 19.083 19.083C18.483 19.683 17.6688 20.0204 16.8203 20.0205H15.8213L15.7031 20.0264C15.4297 20.0535 15.1722 20.1737 14.9756 20.3691L14.2773 21.0674C13.9805 21.3654 13.6276 21.6021 13.2393 21.7637C12.8501 21.9255 12.4322 22.0087 12.0107 22.0088C11.5892 22.0088 11.1705 21.9255 10.7812 21.7637C10.393 21.6021 10.04 21.3652 9.74316 21.0674L9.04492 20.3691C8.8486 20.1741 8.59134 20.0537 8.31836 20.0264L8.2002 20.0205H7.2002C6.35182 20.0204 5.53751 19.6828 4.9375 19.083C4.33762 18.483 4.00012 17.6687 4 16.8203V15.8213L3.99414 15.7031C3.96708 15.4307 3.84742 15.1739 3.65332 14.9775L2.95312 14.2773L2.9541 14.2764C2.65624 13.9796 2.41837 13.6275 2.25684 13.2393C2.09499 12.8501 2.01084 12.4322 2.01074 12.0107C2.01074 11.5891 2.09495 11.1706 2.25684 10.7812C2.41876 10.392 2.65613 10.0385 2.95508 9.74121L3.65332 9.04297C3.84734 8.84686 3.96688 8.59055 3.99414 8.31836L4 8.2002V7.2002C4.00007 6.3516 4.33745 5.53755 4.9375 4.9375C5.53755 4.33746 6.3516 4.00007 7.2002 4H8.2002L8.31836 3.99414C8.59145 3.96679 8.84856 3.84653 9.04492 3.65137L9.74316 2.95312C10.04 2.65511 10.3928 2.41841 10.7812 2.25684C11.1706 2.09496 11.5891 2.01172 12.0107 2.01172ZM12.0107 4.01172C11.8527 4.01172 11.6957 4.0429 11.5498 4.10352C11.4038 4.16424 11.2707 4.25309 11.1592 4.36523L10.4561 5.06934C9.85706 5.66497 9.04589 5.99935 8.20117 6H7.2002C6.88204 6.00007 6.57654 6.12659 6.35156 6.35156C6.12658 6.57654 6.00007 6.88203 6 7.2002V8.20117C5.99936 9.04589 5.66497 9.85706 5.06934 10.4561L4.36523 11.1592C4.25309 11.2707 4.16424 11.4038 4.10352 11.5498C4.0429 11.6957 4.01172 11.8527 4.01172 12.0107C4.01182 12.1686 4.04288 12.3259 4.10352 12.4717C4.1642 12.6173 4.2534 12.7501 4.36523 12.8613L5.06934 13.5654C5.66482 14.1645 5.99952 14.9756 6 15.8203V16.8203C6.00012 17.1383 6.12676 17.444 6.35156 17.6689C6.5765 17.8936 6.88226 18.0204 7.2002 18.0205H8.20117C8.99309 18.0211 9.75516 18.3152 10.3408 18.8428L10.4561 18.9512L11.1592 19.6553C11.2706 19.7672 11.404 19.8564 11.5498 19.917C11.6957 19.9776 11.8528 20.0088 12.0107 20.0088C12.1686 20.0087 12.3259 19.9776 12.4717 19.917C12.6174 19.8563 12.75 19.7672 12.8613 19.6553L13.5654 18.9512C14.1646 18.3555 14.9754 18.021 15.8203 18.0205H16.8203C17.1384 18.0204 17.444 17.8939 17.6689 17.6689C17.8939 17.444 18.0204 17.1384 18.0205 16.8203V15.8203L18.0244 15.6621C18.0637 14.8747 18.3927 14.1272 18.9512 13.5654L19.6553 12.8613C19.7672 12.75 19.8563 12.6174 19.917 12.4717C19.9776 12.3259 20.0087 12.1686 20.0088 12.0107C20.0088 11.8528 19.9776 11.6957 19.917 11.5498C19.8564 11.404 19.7672 11.2706 19.6553 11.1592L18.9512 10.4561C18.3555 9.85705 18.0211 9.0459 18.0205 8.20117V7.2002C18.0204 6.88226 17.8936 6.5765 17.6689 6.35156C17.444 6.12676 17.1383 6.00013 16.8203 6H15.8203C14.9756 5.99952 14.1645 5.66482 13.5654 5.06934L12.8613 4.36523C12.7501 4.25341 12.6173 4.1642 12.4717 4.10352C12.3259 4.04289 12.1686 4.01182 12.0107 4.01172Z" fill="#5D6374"/>
</svg>
