<svg width="24" height="24" viewBox="0 0 24 24" fill="none" xmlns="http://www.w3.org/2000/svg">
<g clip-path="url(#clip0_2533_2597)">
<path fill-rule="evenodd" clip-rule="evenodd" d="M16.9922 3.02429C17.3061 3.00645 17.6203 3.06704 17.9062 3.20105C18.1922 3.33512 18.4399 3.53821 18.627 3.79089L18.7041 3.90222L18.7725 4.01941C18.9216 4.29597 19 4.60614 19 4.92175V7.12781C19.6858 7.30506 20.3187 7.6623 20.8281 8.17175C21.5782 8.92187 22 9.93906 22 10.9999C22 12.0607 21.5782 13.0779 20.8281 13.828C20.3187 14.3375 19.6858 14.6947 19 14.8719V17.077C19.0002 17.4381 18.8977 17.7927 18.7041 18.0975C18.5105 18.4023 18.2332 18.6454 17.9062 18.7987C17.5793 18.9519 17.2155 19.0089 16.8574 18.9628C16.4992 18.9166 16.1613 18.7691 15.8838 18.538L11.6367 14.9999H11V18.9999C11 19.5303 10.7891 20.0389 10.4141 20.4139C10.039 20.789 9.53043 20.9999 9 20.9999H8C7.46957 20.9999 6.96101 20.789 6.58594 20.4139C6.2109 20.0389 6 19.5303 6 18.9999V14.9999H4C3.46958 14.9999 2.96101 14.789 2.58594 14.4139C2.21093 14.0389 2.00001 13.5303 2 12.9999V8.99988C2.00004 8.46952 2.21092 7.96085 2.58594 7.58581C2.961 7.21079 3.46961 6.99988 4 6.99988H11.6367L15.8838 3.46179C16.1613 3.23068 16.4992 3.0831 16.8574 3.03699L16.9922 3.02429ZM8 18.9999H9V14.9999H8V18.9999ZM12.6406 8.76843C12.4609 8.91819 12.2339 8.99988 12 8.99988H11V12.9999H12L12.0869 13.0038C12.2896 13.0215 12.4833 13.1002 12.6406 13.2313L17 16.8641V5.13464L12.6406 8.76843ZM4 8.99988V12.9999H9V8.99988H4ZM19 12.7294C19.1496 12.6428 19.2897 12.5383 19.4141 12.4139C19.7891 12.0389 20 11.5303 20 10.9999C20 10.4695 19.7891 9.96086 19.4141 9.58581C19.2896 9.46135 19.1498 9.356 19 9.26941V12.7294Z" fill="#5D6374"/>
</g>
<defs>
<clipPath id="clip0_2533_2597">
<rect width="24" height="24" fill="white"/>
</clipPath>
</defs>
</svg>
